<svg xmlns="http://www.w3.org/2000/svg" viewBox="0 0 32 32" fill="none">
  <rect width="32" height="32" rx="7" fill="#059669"/>
  <path d="M12.5 7.5h6.2L22 10.8v7.7a1 1 0 0 1-1 1h-8.5a1 1 0 0 1-1-1V8.5a1 1 0 0 1 1-1Z" fill="#fff" fill-opacity="0.92"/>
  <path d="M18.7 7.6v2.7a.6.6 0 0 0 .6.6H22" stroke="#059669" stroke-width="1.1" stroke-linecap="round" stroke-linejoin="round" fill="none"/>
  <path d="M13.5 13.5h6M13.5 15.5h6M13.5 17.5h4" stroke="#059669" stroke-width="1.1" stroke-linecap="round"/>
  <path d="M16 20.5v3.5a1 1 0 0 0 1 1h6a1 1 0 0 0 1-1v-6.2L20.8 13.5H18.6" stroke="#fff" stroke-width="1.3" stroke-linecap="round" stroke-linejoin="round" fill="none"/>
  <path d="M20.8 13.5v2.2a.6.6 0 0 0 .6.6h2.6" stroke="#fff" stroke-width="1.3" stroke-linecap="round" stroke-linejoin="round" fill="none"/>
</svg>
